<svg width="93" height="93" viewBox="0 0 93 93" fill="none" xmlns="http://www.w3.org/2000/svg">
<path d="M40.2533 12.0108C43.3763 3.15662 53.0857 -1.48946 61.9399 1.63353C70.7942 4.75652 75.4402 14.466 72.3172 23.3202L52.0269 80.8467C48.9039 89.701 39.1945 94.347 30.3402 91.224C21.486 88.101 16.8399 78.3916 19.9629 69.5374L40.2533 12.0108Z" fill="#14B1E7"/>
<path d="M12.1937 52.4819C3.33945 49.3589 -1.30663 39.6495 1.81637 30.7953C4.93936 21.941 14.6488 17.295 23.503 20.418L81.0296 40.7083C89.8838 43.8313 94.5299 53.5407 91.4069 62.3949C88.2839 71.2492 78.5744 75.8952 69.7202 72.7723L12.1937 52.4819Z" fill="#14B1E7"/>
</svg>
