<svg width="93" height="79" viewBox="0 0 93 79" fill="none" xmlns="http://www.w3.org/2000/svg">
<path d="M40.2368 -1.98916C43.3598 -10.8434 53.0692 -15.4895 61.9235 -12.3665C70.7777 -9.24348 75.4238 0.465977 72.3008 9.3202L52.0104 66.8467C48.8874 75.701 39.178 80.347 30.3238 77.224C21.4695 74.101 16.8235 64.3916 19.9465 55.5374L40.2368 -1.98916Z" fill="#14B1E7"/>
<path d="M12.1772 38.4819C3.32297 35.3589 -1.32311 25.6495 1.79989 16.7953C4.92288 7.94104 14.6323 3.29496 23.4866 6.41795L81.0131 26.7083C89.8673 29.8313 94.5134 39.5407 91.3904 48.3949C88.2674 57.2492 78.558 61.8952 69.7037 58.7723L12.1772 38.4819Z" fill="#14B1E7"/>
</svg>
