<svg width="92" height="99" viewBox="0 0 92 99" fill="none" xmlns="http://www.w3.org/2000/svg">
<path d="M55.8254 14.8341L63.1727 9.63637L55.8254 14.8341C59.9782 20.7043 66.2301 24.7519 73.2858 26.1381L74.102 26.2984C80.4554 27.5467 83.9656 34.4118 81.2575 40.2932L80.9097 41.0487C77.9023 47.5802 77.523 55.0183 79.8504 61.8219L80.1196 62.6088L88.6351 59.6958L80.1196 62.6088C82.2153 68.7352 78.025 75.2076 71.5776 75.8031L70.7494 75.8796C63.5892 76.5409 56.958 79.9315 52.2296 85.3488L51.6827 85.9755C47.4249 90.8536 39.7245 90.4609 35.9851 85.175L35.5047 84.496C31.3519 78.6258 25.1 74.5782 18.0443 73.192L17.2281 73.0317L15.4931 81.8628L17.2281 73.0317C10.8747 71.7834 7.36454 64.9183 10.0725 59.0369L2.49965 55.5501L10.0726 59.0369L10.4204 58.2814C13.4278 51.7499 13.8071 44.3118 11.4797 37.5082L3.0855 40.3797L11.4797 37.5082L11.2105 36.7213C9.11479 30.5949 13.3051 24.1225 19.7525 23.527L18.9421 14.7523L19.7525 23.527L20.5808 23.4505C27.7409 22.7892 34.3721 19.3986 39.1005 13.9813L39.6474 13.3546L32.8669 7.43645L39.6474 13.3546C43.9051 8.47653 51.6056 8.8692 55.345 14.1551L55.8254 14.8341Z" stroke="#ED0677" stroke-width="18"/>
</svg>
