<svg width="92" height="99" viewBox="0 0 92 99" fill="none" xmlns="http://www.w3.org/2000/svg">
<path d="M55.842 14.8341L63.1893 9.63637L55.842 14.8341C59.9948 20.7043 66.2467 24.7519 73.3024 26.1381L74.1186 26.2984C80.472 27.5467 83.9822 34.4118 81.2741 40.2932L80.9263 41.0487C77.9189 47.5802 77.5396 55.0183 79.867 61.8219L80.1362 62.6088L88.6517 59.6958L80.1362 62.6088C82.2319 68.7352 78.0416 75.2076 71.5942 75.8031L70.766 75.8796C63.6058 76.5409 56.9746 79.9315 52.2462 85.3488L51.6993 85.9755C47.4415 90.8536 39.7411 90.4609 36.0017 85.175L35.5213 84.496C31.3685 78.6258 25.1166 74.5782 18.0609 73.192L17.2447 73.0317L15.5097 81.8628L17.2447 73.0317C10.8913 71.7834 7.38114 64.9183 10.0892 59.0369L2.51626 55.5501L10.0892 59.0369L10.437 58.2814C13.4444 51.7499 13.8237 44.3118 11.4963 37.5082L3.10211 40.3797L11.4963 37.5082L11.2271 36.7213C9.1314 30.5949 13.3217 24.1225 19.7691 23.527L18.9587 14.7523L19.7691 23.527L20.5974 23.4505C27.7575 22.7892 34.3887 19.3986 39.1171 13.9813L39.664 13.3546L32.8835 7.43645L39.664 13.3546C43.9218 8.47653 51.6222 8.8692 55.3616 14.1551L55.842 14.8341Z" stroke="#ED0677" stroke-width="18"/>
</svg>
