<svg width="54" height="26" viewBox="0 0 54 26" fill="none" xmlns="http://www.w3.org/2000/svg">
<path d="M53.8903 2.9945L53.7099 1.60729C53.6841 1.37488 53.6091 1.15062 53.49 0.949391C53.3709 0.748165 53.2103 0.574579 53.019 0.440156C52.4399 0.021647 51.4117 0 50.82 0C50.5602 0 50.2373 0 49.8711 0.0144313L6.45629 0.0126274C6.15556 -0.00254932 5.85411 0.0040824 5.55434 0.0324705C1.98438 0.39145 -0.373334 4.25544 0.0487827 8.46758C0.470899 12.6797 3.1443 15.3333 6.71245 14.9725C7.40448 14.9203 8.07841 14.7265 8.69249 14.4031C9.30657 14.0798 9.84772 13.6338 10.2824 13.0928C11.6317 11.4477 11.4135 9.21801 11.4135 9.21801L11.2944 6.59692C11.2944 6.56265 11.2691 6.53739 11.2439 6.541L5.56155 6.90178C5.54796 6.9056 5.53632 6.91442 5.52896 6.92646C5.5216 6.93851 5.51906 6.95289 5.52186 6.96672L5.75818 9.61307C5.75818 9.64734 5.78524 9.6726 5.81049 9.66899L7.99143 9.49942C8.12311 10.8055 7.25543 11.3863 6.78641 11.4639C4.78045 11.7814 3.45277 9.92154 3.53214 7.48084C3.58446 5.80139 4.54234 3.97944 5.92955 3.84054C6.73951 3.75936 7.29872 4.08767 7.77856 4.54948C8.05095 4.75693 8.40993 5.27104 8.61738 5.54704C8.62088 5.55303 8.62588 5.558 8.6319 5.56145C8.63791 5.5649 8.64472 5.56672 8.65166 5.56672C8.65859 5.56672 8.66541 5.5649 8.67142 5.56145C8.67743 5.558 8.68244 5.55303 8.68593 5.54704L11.0797 2.58682C11.0864 2.57432 11.0898 2.56038 11.0898 2.54623C11.0898 2.53208 11.0864 2.51814 11.0797 2.50564C10.7559 1.98048 10.3257 1.52885 9.81699 1.17976H11.8482C11.8374 1.2811 11.8374 1.38329 11.8482 1.48462L12.3641 14.1247L14.2095 14.0038L16.0838 13.8234L15.8745 9.2144L16.9858 9.1188L19.2515 13.4338L22.7871 13.0135L20.4637 8.72013C20.9917 8.4818 21.4554 8.12132 21.8166 7.66845C22.43 6.69794 22.7709 5.69496 22.5653 4.03897C22.4101 2.77623 21.9646 1.83278 21.2538 1.17976H24.0769C23.7811 1.6374 23.6413 2.17845 23.6783 2.72211L24.1581 12.8511L32.0611 11.9058L32.6023 9.63652L27.8832 9.9973L27.8074 8.40084L33.0785 8.00758L33.7044 4.91206L27.6487 5.32516L27.5874 3.60964L34.0147 3.48697L34.619 1.17255H36.1975L33.865 11.6894L37.6135 11.2438L37.8264 10.2462L41.0933 9.83856L41.4901 10.791L45.1611 10.3545L41.3188 1.17976H42.7096L43.6296 3.31199L46.7143 3.22179L47.5243 10.0767L51.3467 9.62209L50.7027 3.10274L53.8903 2.9945ZM17.5215 6.09543L15.6382 6.23073L15.5138 3.1767L16.9767 3.06666C17.3902 3.03104 17.801 3.16026 18.1196 3.42618C18.4383 3.6921 18.6389 4.07316 18.6778 4.48634C18.7915 5.42257 18.0843 6.04673 17.5215 6.09543ZM38.3658 7.59809L38.9286 3.80987L40.1589 7.43574L38.3658 7.59809Z" fill="#ED0677"/>
<path d="M51.3755 25.9909C51.7579 25.9819 52.7754 25.8791 53.3075 25.2928C53.641 24.9049 53.8207 24.4081 53.8126 23.8966V22.3975L49.6167 22.7745L49.5932 20.7794L53.367 20.4186L53.3436 17.1824L49.4814 17.6262L49.4129 15.7212L53.9046 15.245V11.7634L45.2458 12.6275L45.6066 24.9573H44.5567L44.1635 12.6906L40.101 13.1254L37.6712 16.2245L35.0898 13.6052L30.9786 14.0237L31.5541 24.9573H31.0634L27.2752 14.4495L21.84 14.9906L19.5797 24.9501H19.1648L17.4583 22.0638C19.3289 21.2917 19.4426 19.5978 19.347 18.6201C19.1991 16.9966 17.516 15.5535 15.0176 15.7338L10.7297 16.1487L9.26129 16.3291L9.30458 17.1806L9.77901 24.9464H4.94993L4.83628 23.5971L7.378 23.3265L7.19761 20.8443L4.65408 21.1149L4.53683 19.8432L8.58301 19.4391L8.40262 16.3959L1.95362 17.0327C1.67943 17.0685 1.42527 17.1956 1.23206 17.3934C1.04484 17.6271 0.948134 17.9204 0.959664 18.2196L1.481 25.9999L51.3755 25.9909ZM37.9598 21.2322L40.4564 18.8979L40.6368 24.9573H35.5371L35.2449 19.1721L37.9598 21.2322ZM24.6595 17.6785L24.6884 17.6478L25.796 20.7451L23.8983 20.9562L24.6595 17.6785ZM23.4761 23.7162L26.4743 23.3951L26.9054 24.9573H23.2705L23.4761 23.7162ZM13.0639 24.9573L12.8835 22.8954L14.3267 22.6952L15.5588 24.9573H13.0639ZM14.4818 18.4C15.2034 18.3098 15.6255 18.6869 15.6616 19.0585C15.6743 19.1766 15.6625 19.296 15.6268 19.4093C15.5911 19.5226 15.5324 19.6273 15.4543 19.7167C15.3761 19.8062 15.2803 19.8785 15.1729 19.9292C15.0655 19.9798 14.9487 20.0076 14.83 20.0109L12.6436 20.3068L12.5192 18.6382L14.4818 18.4Z" fill="white"/>
</svg>
