<svg width="986" height="264" viewBox="0 0 986 264" fill="none" xmlns="http://www.w3.org/2000/svg">
<path d="M206 26.5747L205.31 21.2127C205.212 20.3144 204.925 19.4475 204.47 18.6697C204.015 17.8919 203.401 17.2209 202.669 16.7013C200.456 15.0837 196.525 15 194.264 15C193.271 15 192.036 15 190.637 15.0558L24.6797 15.0488C23.5301 14.9901 22.3778 15.0158 21.2319 15.1255C7.58548 16.5131 -1.4271 31.4486 0.186476 47.7299C1.80005 64.0113 12.0194 74.2681 25.6589 72.8736C28.3042 72.6716 30.8804 71.9226 33.2278 70.6728C35.5751 69.423 37.6437 67.6992 39.3053 65.608C44.4632 59.2489 43.6289 50.6306 43.6289 50.6306L43.1738 40.4992C43.1738 40.3668 43.0772 40.2691 42.9807 40.2831L21.2595 41.6776C21.2075 41.6924 21.163 41.7265 21.1349 41.773C21.1068 41.8196 21.0971 41.8752 21.1078 41.9286L22.0111 52.1576C22.0111 52.2901 22.1145 52.3877 22.2111 52.3738L30.5479 51.7183C31.0513 56.7666 27.7345 59.0118 25.9416 59.3116C18.2737 60.5388 13.1985 53.35 13.5019 43.9159C13.7019 37.4243 17.3635 30.3818 22.6662 29.8449C25.7623 29.5312 27.9 30.8002 29.7342 32.5852C30.7754 33.3871 32.1477 35.3743 32.9407 36.4411C32.954 36.4643 32.9732 36.4835 32.9961 36.4968C33.0191 36.5102 33.0452 36.5172 33.0717 36.5172C33.0982 36.5172 33.1242 36.5102 33.1472 36.4968C33.1702 36.4835 33.1893 36.4643 33.2027 36.4411L42.3532 24.9989C42.3785 24.9506 42.3918 24.8967 42.3918 24.842C42.3918 24.7873 42.3785 24.7334 42.3532 24.6851C41.1151 22.6552 39.471 20.9095 37.5262 19.5602H45.2907C45.2496 19.9519 45.2496 20.3469 45.2907 20.7385L47.2629 69.5964L54.3171 69.1292L61.4816 68.432L60.6817 50.6167L64.9294 50.2471L73.5903 66.9258L87.1057 65.3012L78.2242 48.7061C80.2425 47.7849 82.0151 46.3916 83.3959 44.641C85.7404 40.8897 87.0437 37.0129 86.2576 30.6119C85.6646 25.731 83.9613 22.0843 81.2445 19.5602H92.0361C90.9054 21.3291 90.3708 23.4204 90.5122 25.5218L92.3464 64.6737L122.556 61.02L124.625 52.2483L106.586 53.6428L106.296 47.472L126.445 45.9519L128.838 33.9867L105.689 35.5835L105.455 28.9524L130.024 28.4783L132.334 19.5323H138.368L129.452 60.1832L143.781 58.461L144.595 54.6051L157.082 53.0292L158.6 56.7108L172.632 55.0234L157.944 19.5602H163.261L166.778 27.8019L178.569 27.4533L181.665 53.9496L196.277 52.1925L193.815 26.9931L206 26.5747ZM66.9774 38.5608L59.7784 39.0838L59.3026 27.279L64.895 26.8536C66.4755 26.7159 68.0459 27.2154 69.2638 28.2433C70.4818 29.2711 71.2487 30.7441 71.3975 32.3412C71.832 35.96 69.1289 38.3726 66.9774 38.5608ZM146.656 44.3691L148.808 29.7264L153.511 43.7416L146.656 44.3691Z" fill="#ED0677"/>
<path d="M939.14 263.833C946.226 263.665 965.077 261.759 974.937 250.887C981.116 243.693 984.446 234.481 984.295 224.995V197.197L906.552 204.189L906.118 167.191L976.04 160.501L975.605 100.489L904.045 108.718L902.775 73.3928L986 64.5616V0L825.567 16.0233L832.251 244.665H812.799L805.513 17.1941L730.243 25.256L685.221 82.7258L637.392 34.1541L561.219 41.9148L571.881 244.665H562.79L492.601 49.8094L391.895 59.8449L350.016 244.531H342.328L310.709 191.009C345.37 176.691 347.475 145.28 345.704 127.15C342.963 97.0431 311.779 70.2818 265.487 73.627L186.039 81.3208L158.833 84.666L159.635 100.455L168.425 244.464H78.9501L76.8445 219.442L123.938 214.425L120.596 168.395L73.4687 173.413L71.2961 149.83L146.265 142.337L142.923 85.9037L23.4335 97.7121C18.3532 98.3774 13.6441 100.734 10.0641 104.402C6.59532 108.736 4.80348 114.175 5.01712 119.723L14.6765 264L939.14 263.833ZM690.569 175.587L736.827 132.301L740.169 244.665H645.681L640.266 137.386L690.569 175.587ZM444.136 109.688L444.671 109.119L465.193 166.555L430.032 170.469L444.136 109.688ZM422.211 221.65L477.761 215.696L485.749 244.665H418.4L422.211 221.65ZM229.29 244.665L225.947 206.43L252.686 202.717L275.514 244.665H229.29ZM255.56 123.068C268.93 121.396 276.751 128.387 277.42 135.278C277.656 137.468 277.436 139.683 276.775 141.784C276.114 143.885 275.026 145.826 273.578 147.485C272.131 149.144 270.356 150.485 268.365 151.424C266.374 152.363 264.211 152.88 262.011 152.941L221.502 158.427L219.196 127.484L255.56 123.068Z" fill="#fff"/>
</svg>
