<svg width="16" height="35" viewBox="0 0 16 35" fill="none" xmlns="http://www.w3.org/2000/svg">
<rect x="0.5" y="0.5" width="14.9375" height="22" rx="7.46875" stroke="#ED0677"/>
<path d="M7.58395 34.3536C7.77921 34.5488 8.09579 34.5488 8.29105 34.3536L11.473 31.1716C11.6683 30.9763 11.6683 30.6597 11.473 30.4645C11.2778 30.2692 10.9612 30.2692 10.7659 30.4645L7.9375 33.2929L5.10907 30.4645C4.91381 30.2692 4.59723 30.2692 4.40197 30.4645C4.2067 30.6597 4.2067 30.9763 4.40197 31.1716L7.58395 34.3536ZM7.4375 27L7.4375 34L8.4375 34L8.4375 27L7.4375 27Z" fill="#14B1E7"/>
<ellipse cx="7.9375" cy="16.5" rx="1" ry="1.5" fill="#ED0677"/>
</svg>
