<svg width="233" height="864" viewBox="0 0 233 864" fill="none" xmlns="http://www.w3.org/2000/svg">
<path d="M211.419 286L215.394 285.484C216.06 285.411 216.703 285.197 217.279 284.856C217.856 284.516 218.354 284.057 218.739 283.51C219.938 281.855 220 278.917 220 277.226C220 276.484 220 275.561 219.959 274.515L219.964 150.45C220.007 149.59 219.988 148.729 219.907 147.872C218.878 137.671 207.805 130.933 195.735 132.139C183.664 133.346 176.06 140.985 177.094 151.182C177.244 153.159 177.799 155.085 178.725 156.84C179.652 158.595 180.93 160.141 182.48 161.384C187.195 165.24 193.584 164.616 193.584 164.616L201.096 164.276C201.194 164.276 201.266 164.203 201.256 164.131L200.222 147.893C200.211 147.854 200.186 147.821 200.151 147.8C200.117 147.779 200.075 147.772 200.036 147.78L192.452 148.455C192.354 148.455 192.282 148.532 192.292 148.604L192.778 154.837C189.035 155.213 187.371 152.734 187.148 151.393C186.239 145.661 191.568 141.867 198.562 142.094C203.375 142.243 208.596 144.98 208.994 148.945C209.227 151.259 208.286 152.857 206.963 154.228C206.368 155.007 204.895 156.033 204.104 156.626C204.087 156.636 204.073 156.65 204.063 156.667C204.053 156.684 204.048 156.704 204.048 156.723C204.048 156.743 204.053 156.763 204.063 156.78C204.073 156.797 204.087 156.811 204.104 156.821L212.587 163.662C212.623 163.681 212.663 163.691 212.703 163.691C212.744 163.691 212.784 163.681 212.82 163.662C214.325 162.737 215.619 161.507 216.619 160.054V165.858C216.329 165.827 216.036 165.827 215.746 165.858L179.523 167.332L179.87 172.606L180.387 177.962L193.595 177.364L193.869 180.539L181.503 187.014L182.708 197.118L195.011 190.478C195.694 191.987 196.727 193.312 198.025 194.345C200.806 196.097 203.68 197.071 208.426 196.484C212.044 196.04 214.748 194.767 216.619 192.736V200.804C215.308 199.958 213.757 199.559 212.199 199.664L183.173 201.036L185.882 223.62L192.385 225.166L191.351 211.681L195.926 211.464L197.053 226.527L205.924 228.316L204.74 211.011L209.656 210.835L210.008 229.202L216.64 230.929V235.44L186.502 228.775L187.779 239.487L190.638 240.095L191.806 249.431L189.077 250.565L190.328 261.055L216.619 250.075V254.049L210.509 256.678L210.768 265.493L191.124 267.808L192.426 278.731L211.109 276.891L211.419 286ZM202.533 182.071L202.145 176.689L210.897 176.333L211.212 180.514C211.314 181.695 210.944 182.869 210.182 183.78C209.42 184.69 208.328 185.264 207.144 185.375C204.461 185.7 202.672 183.679 202.533 182.071ZM198.226 241.636L209.082 243.245L198.692 246.76L198.226 241.636Z" fill="#ED0677"/>
<path d="M0.147141 822.315C0.294296 828.552 1.97185 845.146 11.5369 853.826C17.8661 859.266 25.9708 862.197 34.3165 862.064H58.7736L52.6226 793.628L85.1732 793.245L91.0594 854.797L143.859 854.414L136.619 791.421L167.698 790.303L175.467 863.565H232.269L218.172 722.337L17.0111 728.221V711.098L217.142 704.684L210.049 638.424L159.486 598.792L202.22 556.688L195.392 489.635L17.0111 499.02V491.017L188.446 429.23L179.617 340.58L17.1288 303.714V296.947L64.2184 269.113C76.8148 299.624 104.45 301.478 120.402 299.918C146.89 297.506 170.435 270.055 167.492 229.304L160.722 159.367L157.779 135.417L143.888 136.123L17.1877 143.862V65.0976L39.202 63.244L43.6167 104.7L84.1137 101.758L79.699 60.2723L100.448 58.3598L107.04 124.354L156.69 121.412L146.301 16.2269C145.716 11.7547 143.643 7.60933 140.415 4.45786C136.603 1.40434 131.817 -0.172996 126.936 0.0150697L-1.52588e-05 8.51817L0.147141 822.315ZM77.786 603.5L115.87 644.22L17.0111 647.163V563.985L111.396 559.219L77.786 603.5ZM135.765 386.568L136.265 387.038L85.7324 405.104L82.289 374.151L135.765 386.568ZM37.2596 367.266L42.4983 416.167L17.0111 423.199V363.912L37.2596 367.266ZM17.0111 197.44L50.6507 194.498L53.9175 218.036L17.0111 238.131L17.0111 197.44ZM123.993 220.566C125.464 232.335 119.313 239.22 113.25 239.808C111.324 240.016 109.375 239.823 107.527 239.241C105.678 238.659 103.971 237.701 102.511 236.427C101.051 235.153 99.8711 233.59 99.045 231.838C98.2189 230.085 97.7646 228.181 97.7108 226.245L92.8841 190.584L120.108 188.554L123.993 220.566Z" fill="#14B1E7"/>
</svg>
